<svg id="svg" version="1.1" width="400" height="242.13075060532688" viewBox="0 0 400 242.13075060532688" xmlns="http://www.w3.org/2000/svg" xmlns:xlink="http://www.w3.org/1999/xlink" ><g id="svgg"><path id="path0" d="M66.088 105.202 C 60.963 115.957,57.315 123.610,53.770 131.044 C 50.749 137.382,50.988 136.667,51.886 136.667 L 52.606 136.667 54.960 131.708 C 56.255 128.981,58.189 124.912,59.258 122.667 C 65.612 109.319,64.950 110.500,66.074 110.501 C 67.735 110.502,67.295 109.766,74.443 124.500 L 80.305 136.583 84.986 136.628 C 87.560 136.652,89.667 136.627,89.667 136.572 C 89.667 136.517,88.588 134.209,87.269 131.444 C 85.951 128.679,83.738 124.036,82.351 121.126 C 72.374 100.178,70.939 97.175,70.646 96.619 C 70.404 96.160,70.347 96.267,66.088 105.202 M226.803 100.695 C 225.737 103.200,222.975 109.675,220.665 115.083 C 216.353 125.177,211.699 136.088,211.549 136.458 C 211.489 136.607,211.674 136.665,212.191 136.661 L 212.917 136.655 214.096 133.869 C 223.611 111.387,223.477 111.667,224.669 111.667 C 226.027 111.667,225.929 111.482,232.082 125.625 L 236.886 136.667 241.443 136.667 C 243.949 136.667,246.000 136.605,246.000 136.529 C 246.000 136.453,245.692 135.684,245.316 134.820 C 244.940 133.957,243.368 130.281,241.823 126.651 L 239.014 120.052 240.673 116.151 C 242.384 112.127,242.678 111.667,243.534 111.667 C 244.912 111.667,245.266 112.227,248.324 119.250 C 249.721 122.458,251.999 127.690,253.386 130.875 L 255.907 136.667 260.454 136.667 C 262.954 136.667,265.000 136.601,265.000 136.521 C 265.000 136.441,264.857 136.047,264.683 135.646 C 264.039 134.164,248.667 98.133,248.089 96.750 L 247.810 96.083 243.047 107.226 L 238.285 118.368 233.894 108.059 C 231.479 102.389,229.331 97.388,229.121 96.945 L 228.740 96.140 226.803 100.695 M348.592 100.390 C 347.497 102.696,345.313 107.283,343.740 110.583 C 342.166 113.883,339.771 118.908,338.417 121.750 C 337.063 124.592,335.020 128.867,333.877 131.250 C 332.735 133.633,331.692 135.831,331.560 136.134 L 331.321 136.685 332.087 136.634 L 332.852 136.583 335.273 131.500 C 336.604 128.704,338.693 124.317,339.915 121.750 C 345.874 109.233,345.139 110.506,346.404 110.503 C 347.893 110.498,347.860 110.441,354.572 124.301 L 360.560 136.667 365.272 136.667 L 369.983 136.667 368.807 134.208 C 367.324 131.107,364.281 124.720,356.757 108.917 C 353.484 102.042,350.756 96.367,350.695 96.306 C 350.633 96.246,349.687 98.083,348.592 100.390 M161.774 97.597 C 157.640 98.598,154.509 102.552,154.469 106.822 C 154.414 112.639,158.831 116.833,165.010 116.833 L 166.325 116.833 165.808 117.708 C 165.365 118.457,160.324 127.058,155.989 134.458 L 154.695 136.667 160.821 136.667 C 166.372 136.667,167.067 136.636,168.232 136.338 C 176.126 134.319,178.902 124.377,173.161 118.682 C 170.880 116.418,169.017 115.689,165.000 115.486 C 161.734 115.321,160.044 114.913,159.591 114.179 C 159.474 113.990,159.124 114.571,166.401 102.875 L 169.019 98.667 170.676 98.667 L 172.333 98.667 172.333 98.000 L 172.333 97.333 167.542 97.347 C 164.018 97.357,162.492 97.424,161.774 97.597 M30.333 98.417 L 30.333 99.000 34.583 99.000 L 38.833 99.000 38.833 117.833 L 38.833 136.667 43.167 136.667 L 47.500 136.667 47.500 117.833 L 47.500 99.000 51.750 99.000 L 56.000 99.000 56.000 98.417 L 56.000 97.833 43.167 97.833 L 30.333 97.833 30.333 98.417 M92.167 117.247 L 92.167 136.667 92.833 136.667 L 93.500 136.667 93.500 122.101 C 93.500 105.829,93.375 107.333,94.725 107.333 C 96.116 107.333,96.486 107.774,98.414 111.723 C 99.360 113.663,102.249 119.563,104.833 124.833 C 107.418 130.104,109.761 134.923,110.041 135.542 L 110.550 136.667 115.608 136.667 L 120.667 136.667 120.667 117.250 L 120.667 97.833 120.000 97.833 L 119.333 97.833 119.325 116.375 L 119.317 134.917 117.236 130.667 C 115.085 126.273,110.038 115.950,104.443 104.500 L 101.225 97.917 96.696 97.872 L 92.167 97.828 92.167 117.247 M125.333 98.417 L 125.333 99.000 129.583 99.000 L 133.833 99.000 133.833 117.833 L 133.833 136.667 138.167 136.667 L 142.500 136.667 142.500 117.833 L 142.500 99.000 146.750 99.000 L 151.000 99.000 151.000 98.417 L 151.000 97.833 138.167 97.833 L 125.333 97.833 125.333 98.417 M181.833 110.821 C 181.833 127.874,182.024 128.998,185.552 132.783 C 191.217 138.860,204.290 138.634,209.256 132.374 C 211.837 129.120,211.833 129.147,211.833 112.140 L 211.833 97.833 211.171 97.833 L 210.509 97.833 210.463 112.542 L 210.417 127.250 209.962 128.496 C 208.740 131.845,206.222 134.055,202.242 135.271 C 199.412 136.137,194.305 135.917,191.542 134.811 L 190.667 134.461 190.667 116.147 L 190.667 97.833 186.250 97.833 L 181.833 97.833 181.833 110.821 M268.500 117.250 L 268.500 136.667 279.750 136.667 L 291.000 136.667 291.000 136.000 L 291.000 135.333 283.999 135.333 L 276.997 135.333 277.040 126.458 L 277.083 117.583 284.042 117.540 L 291.000 117.496 291.000 116.832 L 291.000 116.167 283.998 116.167 L 276.997 116.167 277.040 107.625 L 277.083 99.083 284.042 99.040 L 291.000 98.996 291.000 98.415 L 291.000 97.833 279.750 97.833 L 268.500 97.833 268.500 117.250 M297.667 117.250 L 297.667 136.667 301.999 136.667 L 306.330 136.667 306.374 127.958 L 306.417 119.250 307.058 118.937 C 308.682 118.144,308.507 117.937,314.985 128.299 L 320.216 136.667 325.275 136.667 C 328.057 136.667,330.333 136.631,330.333 136.588 C 330.333 136.544,326.697 130.736,322.253 123.680 C 317.809 116.624,314.153 110.787,314.128 110.708 C 314.094 110.600,319.533 104.086,324.635 98.125 C 324.868 97.853,324.830 97.834,324.067 97.843 L 323.250 97.852 314.833 107.662 L 306.417 117.471 306.374 107.652 L 306.331 97.833 301.999 97.833 L 297.667 97.833 297.667 117.250 " stroke="none" fill="#050001" fill-rule="evenodd"></path><path id="path1" d="M199.333 0.722 C 198.921 0.927,198.321 1.199,198.000 1.326 C 197.387 1.571,196.290 2.056,193.667 3.246 C 188.533 5.573,186.810 6.345,185.912 6.720 C 185.359 6.951,184.099 7.521,183.112 7.987 C 182.124 8.452,181.280 8.833,181.235 8.833 C 181.154 8.833,176.520 10.896,172.083 12.907 C 170.800 13.489,169.037 14.283,168.167 14.673 C 167.296 15.062,166.058 15.623,165.417 15.920 C 164.775 16.216,164.074 16.513,163.860 16.579 C 163.645 16.645,163.045 16.905,162.526 17.157 C 162.008 17.409,160.983 17.883,160.250 18.210 C 159.517 18.537,157.642 19.385,156.083 20.094 C 154.525 20.802,152.762 21.588,152.167 21.840 C 150.833 22.403,148.632 23.410,147.787 23.843 C 147.440 24.021,147.084 24.167,146.996 24.167 C 146.908 24.167,146.141 24.491,145.293 24.888 C 144.444 25.285,143.188 25.859,142.500 26.162 C 141.813 26.466,140.050 27.255,138.583 27.915 C 137.117 28.576,135.354 29.365,134.667 29.669 C 133.979 29.973,132.716 30.547,131.860 30.944 C 131.003 31.341,130.249 31.667,130.183 31.667 C 130.117 31.667,129.767 31.807,129.406 31.979 C 128.375 32.471,125.373 33.830,121.833 35.409 C 120.046 36.206,117.871 37.184,117.000 37.582 C 113.943 38.979,113.521 39.167,113.423 39.167 C 113.369 39.167,112.033 39.758,110.454 40.480 C 105.469 42.760,102.450 44.120,101.412 44.554 C 100.859 44.784,99.599 45.354,98.612 45.820 C 97.624 46.286,96.780 46.667,96.735 46.667 C 96.654 46.667,92.020 48.730,87.583 50.741 C 86.300 51.322,84.537 52.117,83.667 52.506 C 82.796 52.895,81.558 53.456,80.917 53.753 C 80.275 54.050,79.574 54.346,79.360 54.412 C 79.145 54.478,78.545 54.738,78.026 54.990 C 77.508 55.242,76.483 55.716,75.750 56.043 C 75.017 56.371,73.179 57.199,71.667 57.885 C 70.154 58.570,68.467 59.320,67.917 59.551 C 66.970 59.948,65.293 60.710,63.401 61.600 C 62.933 61.820,62.503 62.000,62.443 62.000 C 62.384 62.000,61.641 62.325,60.793 62.722 C 59.944 63.119,58.688 63.692,58.000 63.996 C 57.313 64.299,55.550 65.088,54.083 65.749 C 52.617 66.409,50.854 67.198,50.167 67.502 C 49.479 67.806,48.216 68.380,47.360 68.777 C 46.503 69.175,45.745 69.500,45.674 69.500 C 45.604 69.500,44.430 70.017,43.065 70.648 C 41.700 71.279,39.121 72.447,37.333 73.243 C 35.546 74.040,33.371 75.017,32.500 75.415 C 29.456 76.807,29.021 77.000,28.928 77.000 C 28.876 77.000,27.578 77.571,26.042 78.269 C 24.506 78.967,22.125 80.050,20.750 80.676 C 19.375 81.301,17.462 82.163,16.500 82.590 C 15.537 83.017,13.400 83.968,11.750 84.702 C 10.100 85.437,7.775 86.469,6.583 86.997 C 5.392 87.525,3.600 88.342,2.602 88.812 C 1.604 89.282,0.685 89.667,0.560 89.667 C 0.370 89.667,0.333 94.175,0.333 117.745 L 0.333 145.824 2.708 146.977 C 5.573 148.367,9.993 150.504,12.833 151.873 C 13.979 152.425,16.154 153.475,17.667 154.206 C 19.179 154.937,21.317 155.969,22.417 156.500 C 23.517 157.030,25.654 158.063,27.167 158.795 C 28.679 159.527,31.042 160.669,32.417 161.333 C 33.792 161.997,36.154 163.139,37.667 163.871 C 39.179 164.603,41.542 165.747,42.917 166.412 C 44.292 167.078,46.617 168.200,48.083 168.907 C 49.550 169.613,51.875 170.736,53.250 171.401 C 54.625 172.066,56.950 173.188,58.417 173.894 C 59.883 174.599,62.246 175.742,63.667 176.432 C 65.087 177.123,67.375 178.232,68.750 178.896 C 70.125 179.561,72.412 180.671,73.833 181.362 C 75.254 182.054,77.504 183.143,78.833 183.782 C 80.162 184.422,82.412 185.509,83.833 186.198 C 85.254 186.887,87.129 187.790,88.000 188.205 C 88.871 188.620,114.240 200.894,144.376 215.480 C 198.465 241.659,199.182 242.000,200.166 242.000 C 201.147 242.000,201.708 241.736,237.706 224.312 C 257.805 214.583,275.037 206.250,276.000 205.792 C 277.927 204.877,281.283 203.260,285.000 201.455 C 287.295 200.341,289.329 199.358,294.833 196.704 C 297.290 195.520,300.708 193.868,304.917 191.832 C 307.277 190.690,310.097 189.330,314.500 187.210 C 318.100 185.476,319.336 184.879,355.250 167.498 C 387.401 151.938,390.240 150.567,395.583 148.017 C 396.958 147.361,398.496 146.605,399.000 146.338 L 399.917 145.851 399.958 118.051 L 400.000 90.250 399.208 89.930 C 398.294 89.561,392.163 86.796,384.807 83.435 C 383.280 82.737,381.988 82.167,381.936 82.167 C 381.832 82.167,380.668 81.639,377.940 80.353 C 376.944 79.884,376.074 79.500,376.007 79.500 C 375.940 79.500,375.667 79.393,375.401 79.262 C 374.612 78.873,372.399 77.863,370.083 76.834 C 367.037 75.480,364.472 74.329,361.667 73.056 C 360.337 72.453,358.125 71.450,356.750 70.827 C 355.375 70.204,352.916 69.088,351.285 68.347 C 349.654 67.606,348.281 67.000,348.234 67.000 C 348.130 67.000,347.335 66.640,344.758 65.424 C 343.681 64.916,342.731 64.500,342.647 64.500 C 342.564 64.500,342.365 64.425,342.206 64.334 C 341.790 64.096,338.772 62.710,337.500 62.173 C 336.904 61.921,335.142 61.136,333.583 60.427 C 332.025 59.719,329.625 58.630,328.250 58.007 C 326.875 57.384,324.662 56.380,323.333 55.777 C 320.229 54.369,315.276 52.158,313.917 51.575 C 313.642 51.457,312.545 50.950,311.479 50.448 C 310.413 49.946,309.372 49.482,309.166 49.416 C 308.960 49.351,307.994 48.923,307.021 48.464 C 306.047 48.006,304.650 47.372,303.917 47.055 C 303.183 46.739,301.421 45.953,300.000 45.309 C 294.207 42.684,292.297 41.817,289.833 40.694 C 288.412 40.046,286.650 39.258,285.917 38.942 C 285.183 38.626,283.833 38.014,282.917 37.582 C 282.000 37.150,280.987 36.700,280.667 36.582 C 280.346 36.464,279.408 36.049,278.583 35.660 C 277.758 35.271,276.108 34.521,274.917 33.995 C 272.223 32.805,269.629 31.643,266.500 30.223 C 265.171 29.620,262.958 28.617,261.583 27.994 C 260.208 27.371,257.921 26.335,256.500 25.691 C 255.079 25.047,253.317 24.261,252.583 23.945 C 251.850 23.628,250.453 22.994,249.479 22.536 C 248.506 22.077,247.540 21.649,247.334 21.584 C 247.128 21.518,246.094 21.057,245.038 20.558 C 242.498 19.361,241.703 19.000,241.599 19.000 C 241.552 19.000,240.179 18.394,238.548 17.653 C 236.918 16.912,234.458 15.796,233.083 15.173 C 231.708 14.550,229.496 13.547,228.167 12.944 C 226.838 12.341,224.887 11.461,223.833 10.989 C 222.779 10.517,220.829 9.643,219.500 9.048 C 218.171 8.452,216.108 7.533,214.917 7.005 C 213.725 6.478,212.150 5.765,211.417 5.422 C 208.969 4.277,208.355 4.000,208.267 4.000 C 208.181 4.000,203.238 1.776,201.205 0.823 C 200.631 0.554,200.143 0.337,200.122 0.342 C 200.101 0.347,199.746 0.518,199.333 0.722 M72.840 101.167 C 74.715 105.095,76.954 109.793,82.351 121.126 C 83.738 124.036,85.951 128.679,87.269 131.444 C 88.588 134.209,89.667 136.517,89.667 136.572 C 89.667 136.627,87.560 136.652,84.986 136.628 L 80.305 136.583 74.443 124.500 C 67.295 109.766,67.735 110.502,66.074 110.501 C 65.077 110.500,65.019 110.582,63.030 114.750 C 60.440 120.179,57.690 125.960,54.960 131.708 L 52.606 136.667 51.886 136.667 C 50.988 136.667,50.749 137.382,53.770 131.044 C 57.315 123.610,60.963 115.957,66.088 105.202 C 70.347 96.267,70.404 96.160,70.646 96.619 C 70.781 96.874,71.768 98.921,72.840 101.167 M233.894 108.059 L 238.285 118.368 243.047 107.226 L 247.810 96.083 248.089 96.750 C 248.667 98.133,264.039 134.164,264.683 135.646 C 264.857 136.047,265.000 136.441,265.000 136.521 C 265.000 136.601,262.954 136.667,260.454 136.667 L 255.907 136.667 253.386 130.875 C 244.927 111.444,245.418 112.488,244.474 111.929 C 243.048 111.084,242.630 111.548,240.673 116.151 L 239.014 120.052 241.823 126.651 C 243.368 130.281,244.940 133.957,245.316 134.820 C 245.692 135.684,246.000 136.453,246.000 136.529 C 246.000 136.605,243.949 136.667,241.443 136.667 L 236.886 136.667 232.082 125.625 C 225.929 111.482,226.027 111.667,224.669 111.667 C 223.477 111.667,223.611 111.387,214.096 133.869 L 212.917 136.655 212.191 136.661 C 211.674 136.665,211.489 136.607,211.549 136.458 C 211.699 136.088,216.353 125.177,220.665 115.083 C 222.975 109.675,225.737 103.200,226.803 100.695 L 228.740 96.140 229.121 96.945 C 229.331 97.388,231.479 102.389,233.894 108.059 M356.757 108.917 C 364.281 124.720,367.324 131.107,368.807 134.208 L 369.983 136.667 365.272 136.667 L 360.560 136.667 354.572 124.301 C 347.860 110.441,347.893 110.498,346.404 110.503 C 345.139 110.506,345.874 109.233,339.915 121.750 C 338.693 124.317,336.604 128.704,335.273 131.500 L 332.852 136.583 332.087 136.634 L 331.321 136.685 331.560 136.134 C 331.692 135.831,332.735 133.633,333.877 131.250 C 335.020 128.867,337.063 124.592,338.417 121.750 C 339.771 118.908,342.166 113.883,343.740 110.583 C 345.313 107.283,347.497 102.696,348.592 100.390 C 349.687 98.083,350.633 96.246,350.695 96.306 C 350.756 96.367,353.484 102.042,356.757 108.917 M172.333 98.000 L 172.333 98.667 170.676 98.667 L 169.019 98.667 166.401 102.875 C 159.124 114.571,159.474 113.990,159.591 114.179 C 160.044 114.913,161.734 115.321,165.000 115.486 C 169.017 115.689,170.880 116.418,173.161 118.682 C 178.902 124.377,176.126 134.319,168.232 136.338 C 167.067 136.636,166.372 136.667,160.821 136.667 L 154.695 136.667 155.989 134.458 C 160.324 127.058,165.365 118.457,165.808 117.708 L 166.325 116.833 165.010 116.833 C 156.591 116.833,151.684 108.603,156.015 101.745 C 158.237 98.227,160.489 97.368,167.542 97.347 L 172.333 97.333 172.333 98.000 M56.000 98.417 L 56.000 99.000 51.750 99.000 L 47.500 99.000 47.500 117.833 L 47.500 136.667 43.167 136.667 L 38.833 136.667 38.833 117.833 L 38.833 99.000 34.583 99.000 L 30.333 99.000 30.333 98.417 L 30.333 97.833 43.167 97.833 L 56.000 97.833 56.000 98.417 M104.443 104.500 C 110.038 115.950,115.085 126.273,117.236 130.667 L 119.317 134.917 119.325 116.375 L 119.333 97.833 120.000 97.833 L 120.667 97.833 120.667 117.250 L 120.667 136.667 115.608 136.667 L 110.550 136.667 110.041 135.542 C 109.761 134.923,107.418 130.104,104.833 124.833 C 102.249 119.563,99.360 113.663,98.414 111.723 C 96.486 107.774,96.116 107.333,94.725 107.333 C 93.375 107.333,93.500 105.829,93.500 122.101 L 93.500 136.667 92.833 136.667 L 92.167 136.667 92.167 117.247 L 92.167 97.828 96.696 97.872 L 101.225 97.917 104.443 104.500 M151.000 98.417 L 151.000 99.000 146.750 99.000 L 142.500 99.000 142.500 117.833 L 142.500 136.667 138.167 136.667 L 133.833 136.667 133.833 117.833 L 133.833 99.000 129.583 99.000 L 125.333 99.000 125.333 98.417 L 125.333 97.833 138.167 97.833 L 151.000 97.833 151.000 98.417 M190.667 116.147 L 190.667 134.461 191.542 134.811 C 194.305 135.917,199.412 136.137,202.242 135.271 C 206.222 134.055,208.740 131.845,209.962 128.496 L 210.417 127.250 210.463 112.542 L 210.509 97.833 211.171 97.833 L 211.833 97.833 211.833 112.140 C 211.833 129.147,211.837 129.120,209.256 132.374 C 204.290 138.634,191.217 138.860,185.552 132.783 C 182.024 128.998,181.833 127.874,181.833 110.821 L 181.833 97.833 186.250 97.833 L 190.667 97.833 190.667 116.147 M291.000 98.415 L 291.000 98.996 284.042 99.040 L 277.083 99.083 277.040 107.625 L 276.997 116.167 283.998 116.167 L 291.000 116.167 291.000 116.832 L 291.000 117.496 284.042 117.540 L 277.083 117.583 277.040 126.458 L 276.997 135.333 283.999 135.333 L 291.000 135.333 291.000 136.000 L 291.000 136.667 279.750 136.667 L 268.500 136.667 268.500 117.250 L 268.500 97.833 279.750 97.833 L 291.000 97.833 291.000 98.415 M306.374 107.652 L 306.417 117.471 314.833 107.662 L 323.250 97.852 324.067 97.843 C 324.830 97.834,324.868 97.853,324.635 98.125 C 319.533 104.086,314.094 110.600,314.128 110.708 C 314.153 110.787,317.809 116.624,322.253 123.680 C 326.697 130.736,330.333 136.544,330.333 136.588 C 330.333 136.631,328.057 136.667,325.275 136.667 L 320.216 136.667 314.985 128.299 C 308.507 117.937,308.682 118.144,307.058 118.937 L 306.417 119.250 306.374 127.958 L 306.330 136.667 301.999 136.667 L 297.667 136.667 297.667 117.250 L 297.667 97.833 301.999 97.833 L 306.331 97.833 306.374 107.652 " stroke="none" fill="#ffef8f" fill-rule="evenodd"></path></g></svg>