<?xml version="1.0" standalone="no"?>
<!DOCTYPE svg PUBLIC "-//W3C//DTD SVG 20010904//EN"
 "http://www.w3.org/TR/2001/REC-SVG-20010904/DTD/svg10.dtd">
<svg version="1.0" xmlns="http://www.w3.org/2000/svg"
 width="1600.000000pt" height="1600.000000pt" viewBox="0 0 1600.000000 1600.000000"
 preserveAspectRatio="xMidYMid meet">
<metadata>
Created by potrace 1.11, written by Peter Selinger 2001-2013
</metadata>
<g transform="translate(0.000000,1600.000000) scale(0.100000,-0.100000)"
fill="#000000" stroke="none">
<path d="M7996 12818 c-9 -5 -26 -11 -39 -14 -12 -2 -23 -8 -25 -14 -2 -5 -12
-10 -23 -10 -10 0 -19 -5 -19 -11 0 -5 -4 -8 -9 -4 -5 3 -12 1 -16 -5 -4 -6
-11 -8 -16 -5 -5 4 -9 1 -9 -4 0 -6 -6 -11 -13 -11 -8 0 -27 -6 -43 -14 -16
-8 -76 -35 -134 -61 -58 -26 -134 -61 -170 -78 -36 -17 -74 -32 -85 -34 -11
-2 -21 -8 -23 -13 -2 -6 -8 -10 -14 -10 -6 0 -34 -11 -62 -24 -94 -44 -142
-65 -156 -68 -8 -2 -18 -7 -21 -11 -3 -5 -12 -10 -20 -11 -8 -1 -39 -14 -69
-28 -65 -31 -274 -125 -310 -141 -14 -5 -28 -10 -32 -9 -5 1 -8 -3 -8 -8 0 -5
-3 -9 -7 -8 -9 2 -33 -8 -136 -56 -43 -20 -81 -36 -84 -36 -3 0 -32 -13 -63
-29 -32 -16 -61 -27 -64 -24 -3 4 -6 1 -6 -5 0 -7 -3 -11 -7 -10 -5 1 -30 -9
-58 -22 -183 -85 -224 -104 -260 -118 -22 -8 -51 -23 -65 -31 -13 -9 -24 -15
-25 -13 0 4 -68 -23 -120 -48 -95 -45 -201 -92 -213 -94 -7 -1 -18 -8 -24 -14
-7 -7 -17 -12 -23 -12 -6 0 -33 -11 -61 -24 -27 -13 -87 -40 -134 -60 -47 -21
-105 -47 -130 -59 -25 -11 -49 -22 -55 -23 -5 -1 -48 -20 -95 -42 -111 -51
-132 -61 -416 -187 -131 -58 -267 -119 -302 -136 -35 -16 -65 -29 -67 -29 -3
0 -42 -18 -87 -39 -172 -81 -203 -95 -210 -93 -5 1 -8 -2 -8 -6 0 -4 -10 -8
-22 -9 -11 -1 -24 -6 -27 -11 -3 -5 -17 -13 -31 -17 -22 -7 -87 -36 -230 -103
-19 -9 -38 -15 -42 -14 -5 1 -8 -3 -8 -8 0 -6 -6 -10 -13 -9 -6 1 -52 -17
-102 -40 -97 -46 -138 -63 -144 -61 -2 1 -7 -3 -11 -9 -3 -6 -16 -13 -27 -15
-11 -3 -29 -9 -39 -14 -11 -6 -39 -19 -64 -30 -65 -28 -218 -97 -307 -139 -32
-15 -61 -26 -65 -25 -5 1 -8 -3 -8 -10 0 -6 -3 -9 -6 -6 -3 3 -44 -12 -92 -34
-48 -22 -115 -53 -150 -69 -35 -16 -66 -29 -70 -29 -3 0 -24 -9 -46 -19 -139
-66 -239 -111 -249 -111 -6 0 -18 -7 -28 -16 -9 -8 -26 -16 -38 -17 -11 -1
-21 -5 -21 -9 0 -4 -6 -8 -14 -8 -8 0 -43 -14 -77 -32 -35 -18 -66 -33 -69
-33 -3 -1 -18 -8 -35 -15 -16 -7 -32 -14 -35 -15 -3 0 -26 -11 -52 -23 -26
-12 -49 -22 -52 -22 -3 0 -38 -15 -78 -34 -272 -126 -363 -166 -377 -166 -6 0
-11 -4 -11 -10 0 -5 -7 -10 -16 -10 -9 0 -28 -7 -42 -15 -31 -16 -164 -75
-182 -80 -3 0 -33 -15 -67 -32 -35 -18 -63 -29 -63 -26 0 3 -9 -2 -20 -12 -11
-10 -20 -15 -20 -11 0 3 -19 -4 -43 -16 -23 -12 -46 -23 -52 -24 -5 -1 -48
-20 -95 -42 -107 -50 -184 -85 -190 -87 -3 0 -27 -11 -54 -23 -27 -12 -50 -22
-52 -22 -1 0 -38 -16 -81 -36 -43 -20 -103 -48 -133 -62 -30 -14 -57 -26 -60
-27 -3 0 -27 -11 -54 -23 -27 -12 -52 -22 -57 -22 -12 0 -11 53 -14 -1172 l-2
-1078 104 -50 c56 -27 107 -50 113 -50 5 0 10 -5 10 -10 0 -6 3 -9 8 -8 4 1
75 -31 157 -71 83 -40 170 -82 195 -94 25 -11 48 -26 52 -31 4 -6 8 -8 8 -4 0
3 57 -22 127 -56 71 -35 143 -69 161 -77 17 -8 32 -17 32 -20 0 -3 6 -6 13 -6
6 0 111 -49 232 -108 289 -141 490 -237 542 -261 24 -10 43 -22 43 -26 0 -5 6
-8 13 -8 11 0 144 -61 202 -92 30 -17 43 -23 125 -61 41 -20 186 -89 321 -155
135 -66 256 -123 267 -127 12 -3 22 -11 22 -16 0 -5 11 -9 25 -9 14 0 25 -4
25 -10 0 -5 4 -10 9 -10 5 0 98 -44 207 -97 110 -54 201 -98 204 -98 3 -1 43
-20 90 -43 47 -22 89 -41 94 -41 5 1 12 -3 15 -8 7 -10 137 -73 151 -73 6 0
10 -5 10 -10 0 -6 3 -9 8 -8 4 1 61 -24 127 -56 324 -158 482 -234 503 -240
12 -4 22 -12 22 -17 0 -5 3 -8 8 -7 4 2 41 -14 82 -34 383 -186 553 -268 598
-288 28 -13 52 -26 52 -30 0 -3 9 -6 20 -7 11 -1 33 -10 48 -21 15 -10 43 -25
62 -32 19 -8 68 -31 109 -52 41 -21 81 -38 88 -38 7 0 13 -4 13 -10 0 -5 4
-10 10 -10 5 0 65 -27 132 -60 68 -33 129 -60 136 -60 6 0 12 -4 12 -8 0 -4
15 -14 33 -21 17 -8 34 -15 37 -16 3 -2 15 -6 28 -10 12 -4 22 -11 22 -16 0
-5 5 -9 11 -9 10 0 49 -18 359 -168 80 -38 147 -69 150 -68 3 0 19 -9 37 -22
17 -12 35 -22 40 -22 6 0 45 -18 89 -39 237 -118 283 -139 288 -134 3 4 6 1 6
-5 0 -5 21 -18 48 -28 26 -10 59 -26 74 -36 14 -10 29 -18 32 -18 6 0 132 -60
402 -191 55 -27 106 -49 112 -49 5 0 12 -3 14 -7 4 -10 80 -47 91 -45 4 1 7
-2 7 -8 0 -6 3 -9 8 -8 4 2 57 -22 117 -51 140 -68 178 -85 188 -83 4 1 7 -2
7 -8 0 -5 5 -10 11 -10 6 0 41 -14 77 -31 37 -17 79 -31 94 -31 30 1 114 36
348 149 85 41 160 75 165 76 6 1 12 5 15 8 3 3 50 27 105 54 166 79 363 174
495 238 69 34 127 62 130 62 5 1 232 109 263 126 9 5 25 13 35 19 28 15 432
209 437 210 5 0 176 85 268 132 31 16 57 26 57 21 0 -4 4 -3 8 2 4 6 32 23 62
37 30 14 123 58 205 98 152 74 422 206 660 321 72 34 132 63 135 64 28 8 167
79 172 88 4 7 8 9 8 5 0 -4 30 8 68 26 96 48 278 135 304 146 13 6 30 14 38
20 26 17 269 130 280 130 5 0 10 5 10 10 0 6 8 10 19 10 10 0 24 7 31 15 7 8
18 15 25 15 6 0 51 20 99 44 48 24 88 44 89 44 3 0 228 108 470 226 109 53
202 96 208 96 5 0 9 5 9 11 0 5 5 7 10 4 6 -3 10 -1 10 4 0 6 3 10 8 9 4 -2
69 28 145 65 77 37 143 67 148 67 5 0 9 5 9 10 0 6 3 9 8 8 4 -1 45 16 92 39
47 22 162 78 255 123 94 45 240 116 325 157 85 41 219 106 296 144 78 38 147
69 153 69 6 0 11 5 11 10 0 6 3 9 8 8 4 -1 40 14 80 35 39 20 72 33 72 29 0
-4 4 -2 8 3 7 11 134 74 205 102 20 8 37 19 37 24 0 5 7 9 15 9 8 0 36 11 63
25 94 49 485 235 493 235 5 0 9 5 9 10 0 6 7 10 15 10 8 0 76 31 152 69 l139
69 2 1112 2 1111 -57 26 c-32 14 -85 37 -118 53 -33 15 -93 42 -134 60 -40 17
-106 47 -147 66 -41 19 -79 34 -84 34 -6 0 -10 4 -10 8 0 5 -6 9 -12 9 -12 0
-51 17 -225 99 -39 18 -77 35 -85 36 -7 2 -16 6 -19 11 -3 4 -15 9 -26 11 -11
3 -29 9 -39 14 -11 6 -37 18 -59 28 -22 9 -71 31 -110 49 -85 40 -108 49 -117
47 -5 -1 -8 2 -8 7 0 5 -10 13 -22 17 -25 7 -68 26 -193 84 -44 20 -116 52
-160 71 -44 18 -82 37 -85 40 -3 4 -16 10 -29 14 -13 4 -60 24 -105 45 -183
85 -215 98 -220 92 -3 -3 -6 0 -6 6 0 7 -4 12 -10 12 -5 0 -45 16 -87 36 -43
20 -98 44 -123 54 -58 23 -164 72 -170 80 -3 3 -12 6 -20 8 -8 2 -44 17 -80
34 -57 27 -105 48 -120 53 -3 1 -27 12 -55 25 -27 13 -52 25 -55 25 -3 1 -27
12 -55 25 -128 60 -238 110 -242 110 -2 0 -28 11 -56 24 -92 44 -172 79 -182
82 -5 1 -53 22 -105 47 -131 62 -241 110 -268 118 -4 2 -32 15 -63 30 -31 16
-96 46 -145 67 -127 56 -179 80 -264 120 -41 19 -80 35 -87 35 -7 0 -13 4 -13
8 0 4 -9 11 -21 14 -12 4 -45 18 -75 31 -30 13 -56 24 -59 24 -3 0 -25 11 -50
25 -25 13 -46 24 -48 23 -1 -1 -22 8 -47 19 -58 28 -139 64 -310 139 -36 16
-66 32 -68 36 -2 4 -9 8 -16 8 -12 0 -80 29 -191 80 -67 31 -160 73 -165 75
-3 1 -22 9 -42 18 -79 36 -108 47 -111 45 -2 -2 -11 5 -21 15 -10 9 -22 15
-27 12 -5 -4 -9 -1 -9 4 0 6 -3 10 -7 9 -5 -1 -24 5 -43 14 -277 125 -318 143
-357 159 -18 8 -33 17 -33 20 0 3 -6 6 -12 6 -7 0 -38 12 -68 26 -158 73 -214
97 -226 97 -8 0 -14 4 -14 9 0 5 -10 13 -22 16 -13 4 -47 18 -76 31 -29 13
-54 24 -56 24 -3 0 -51 22 -108 48 -116 55 -137 64 -158 68 -8 2 -16 8 -18 14
-2 5 -8 8 -13 4 -5 -3 -9 -1 -9 4 0 5 -6 9 -12 9 -12 0 -52 18 -227 100 -106
50 -146 66 -153 65 -5 -1 -8 3 -8 8 0 6 -4 9 -8 7 -5 -1 -44 14 -88 34 -74 34
-100 46 -221 100 -27 12 -77 35 -113 51 -36 17 -126 57 -200 90 -74 33 -151
68 -171 77 -25 12 -42 15 -53 9z"/>
</g>
</svg>
